<svg width="16" height="16" viewBox="0 0 16 16" fill="none" xmlns="http://www.w3.org/2000/svg">
<g id="call / 24 / Outline">
<path id="Vector" d="M12.9391 8.66683C12.7925 8.66683 12.6391 8.62016 12.4925 8.58683C12.1957 8.52047 11.9039 8.43359 11.6191 8.32683C11.3099 8.21432 10.9699 8.22016 10.6647 8.34323C10.3595 8.46631 10.1105 8.69792 9.96581 8.9935L9.81914 9.30016C9.17169 8.93297 8.57356 8.48493 8.03914 7.96683C7.52104 7.43241 7.073 6.83428 6.7058 6.18683L7.01247 6.04683C7.30805 5.90211 7.53966 5.65318 7.66273 5.34796C7.78581 5.04273 7.79165 4.70277 7.67914 4.3935C7.57326 4.10618 7.48641 3.81221 7.41914 3.5135C7.3858 3.36683 7.35914 3.2135 7.33914 3.06683C7.25818 2.59724 7.01222 2.17199 6.64555 1.86766C6.27888 1.56332 5.8156 1.3999 5.33914 1.40683H3.33247C3.05064 1.40646 2.7719 1.46566 2.51455 1.58055C2.2572 1.69544 2.02703 1.86343 1.83914 2.0735C1.64735 2.28927 1.50455 2.544 1.42054 2.82019C1.33653 3.09638 1.31331 3.38748 1.35247 3.6735C1.71486 6.44826 2.98261 9.02593 4.95914 11.0068C6.94004 12.9834 9.51771 14.2511 12.2925 14.6135C12.379 14.6201 12.4659 14.6201 12.5525 14.6135C13.0441 14.6142 13.5187 14.4338 13.8858 14.1068C14.0959 13.9189 14.2639 13.6888 14.3787 13.4314C14.4936 13.1741 14.5528 12.8953 14.5525 12.6135V10.6135C14.5489 10.1529 14.3864 9.70757 14.0924 9.35289C13.7985 8.99821 13.3911 8.75588 12.9391 8.66683ZM13.2658 12.6668C13.2656 12.7599 13.2459 12.8518 13.208 12.9368C13.1701 13.0217 13.1149 13.0978 13.0458 13.1602C12.9727 13.2267 12.8858 13.2762 12.7912 13.305C12.6967 13.3339 12.5969 13.3413 12.4991 13.3268C10.0113 13.0019 7.6993 11.8682 5.91914 10.1002C4.13745 8.31847 2.99382 5.99841 2.6658 3.50016C2.65132 3.40239 2.65876 3.30261 2.68759 3.20806C2.71641 3.11352 2.7659 3.02656 2.83247 2.9535C2.89555 2.8836 2.97272 2.82785 3.0589 2.78993C3.14508 2.75201 3.23832 2.73278 3.33247 2.7335H5.33247C5.48658 2.72973 5.63723 2.77949 5.75878 2.8743C5.88033 2.96911 5.96527 3.10311 5.99914 3.2535C5.99914 3.4335 6.05914 3.62016 6.09914 3.80016C6.17619 4.14941 6.27868 4.49254 6.4058 4.82683L5.47247 5.26683C5.31205 5.34047 5.18738 5.47473 5.1258 5.64016C5.05913 5.80247 5.05913 5.98452 5.1258 6.14683C6.08527 8.202 7.7373 9.85403 9.79247 10.8135C9.95478 10.8802 10.1368 10.8802 10.2991 10.8135C10.4646 10.7519 10.5988 10.6273 10.6725 10.4668L11.0925 9.5335C11.4364 9.65891 11.7883 9.76136 12.1458 9.84016C12.3191 9.88016 12.5058 9.9135 12.6858 9.94016C12.8362 9.97403 12.9702 10.059 13.065 10.1805C13.1598 10.3021 13.2096 10.4527 13.2058 10.6068L13.2658 12.6668ZM9.33247 1.3335C9.17914 1.3335 9.01914 1.3335 8.8658 1.3335C8.68899 1.34853 8.52539 1.43318 8.411 1.56883C8.2966 1.70448 8.24078 1.88002 8.25581 2.05683C8.27083 2.23364 8.35548 2.39724 8.49114 2.51164C8.62679 2.62603 8.80233 2.68186 8.97914 2.66683H9.33247C10.3933 2.66683 11.4108 3.08826 12.1609 3.8384C12.911 4.58855 13.3325 5.60596 13.3325 6.66683C13.3325 6.78683 13.3325 6.90016 13.3325 7.02016C13.3177 7.19604 13.3733 7.37059 13.487 7.50556C13.6007 7.64053 13.7633 7.7249 13.9391 7.74016H13.9925C14.1594 7.74084 14.3204 7.6789 14.4439 7.56657C14.5673 7.45425 14.6441 7.29971 14.6591 7.1335C14.6591 6.98016 14.6591 6.82016 14.6591 6.66683C14.6591 5.2535 14.0982 3.89795 13.0994 2.89795C12.1006 1.89795 10.7458 1.33526 9.33247 1.3335ZM10.6658 6.66683C10.6658 6.84364 10.736 7.01321 10.8611 7.13823C10.9861 7.26326 11.1557 7.3335 11.3325 7.3335C11.5093 7.3335 11.6789 7.26326 11.8039 7.13823C11.9289 7.01321 11.9991 6.84364 11.9991 6.66683C11.9991 5.95959 11.7182 5.28131 11.2181 4.78121C10.718 4.28111 10.0397 4.00016 9.33247 4.00016C9.15566 4.00016 8.98609 4.0704 8.86107 4.19543C8.73604 4.32045 8.6658 4.49002 8.6658 4.66683C8.6658 4.84364 8.73604 5.01321 8.86107 5.13823C8.98609 5.26326 9.15566 5.3335 9.33247 5.3335C9.68609 5.3335 10.0252 5.47397 10.2753 5.72402C10.5253 5.97407 10.6658 6.31321 10.6658 6.66683Z" fill="white"/>
</g>
</svg>
